<?xml version='1.0' encoding='utf-8'?>
<!DOCTYPE svg>
<!-- Generator: Adobe Illustrator 16.0.0, SVG Export Plug-In . SVG Version: 6.00 Build 0)  -->
<svg xmlns="http://www.w3.org/2000/svg"  enable-background="new 0 0 255.118 175.75" version="1.1" x="0px" y="0px" xml:space="preserve" width="3.54331in" xmlns:xml="http://www.w3.org/XML/1998/namespace" height="2.44097in" viewBox="0 0 255.118 175.75">
    <desc >
        <referenceFile >svg.schematic.OLED_128x64 I2C_Monnochrome_Display_schematic.svg</referenceFile>
    </desc>
    <defs />
    <rect  id="rect10403" stroke-width="2.6893" gorn="0.2" x="7.973" y="35.824" stroke="#000000" fill="none" stroke-linecap="round" width="239.175" stroke-linejoin="round" height="132.875"/>
    <g >
        <g  enable-background="new    ">
            <path  d="M104.739,107.14h-1.582V97.059c-0.381,0.363-0.88,0.727-1.499,1.09s-1.173,0.636-1.666,0.817v-1.529c0.885-0.416,1.658-0.92,2.32-1.512s1.131-1.166,1.406-1.723h1.02V107.14z"/>
            <path  d="M117.105,105.62v1.521h-8.517c-0.012-0.381,0.05-0.747,0.185-1.099c0.217-0.58,0.564-1.151,1.042-1.714s1.167-1.213,2.07-1.951c1.4-1.148,2.347-2.058,2.839-2.729s0.738-1.306,0.738-1.903c0-0.627-0.224-1.155-0.672-1.587c-0.448-0.43-1.033-0.646-1.753-0.646c-0.762,0-1.371,0.229-1.828,0.686s-0.688,1.09-0.694,1.898l-1.626-0.167c0.111-1.213,0.53-2.137,1.257-2.773c0.727-0.635,1.702-0.953,2.927-0.953c1.236,0,2.215,0.343,2.936,1.028s1.081,1.535,1.081,2.549c0,0.516-0.105,1.022-0.316,1.521s-0.561,1.022-1.05,1.573s-1.302,1.307-2.439,2.268c-0.949,0.797-1.559,1.338-1.828,1.622s-0.492,0.569-0.668,0.856H117.105z"/>
            <path  d="M121.236,100.153c-0.656-0.24-1.143-0.583-1.459-1.028s-0.475-0.979-0.475-1.6c0-0.938,0.337-1.726,1.011-2.364s1.57-0.958,2.689-0.958c1.125,0,2.03,0.327,2.716,0.98s1.028,1.448,1.028,2.386c0,0.598-0.157,1.118-0.47,1.56c-0.313,0.443-0.79,0.784-1.428,1.024c0.791,0.258,1.393,0.674,1.806,1.248s0.62,1.26,0.62,2.057c0,1.102-0.39,2.027-1.169,2.777s-1.805,1.125-3.076,1.125s-2.297-0.376-3.076-1.13c-0.779-0.752-1.169-1.691-1.169-2.816c0-0.838,0.212-1.539,0.637-2.105C119.846,100.744,120.451,100.358,121.236,100.153z M120.41,103.422c0,0.451,0.107,0.888,0.321,1.31s0.532,0.749,0.954,0.98s0.876,0.347,1.362,0.347c0.756,0,1.38-0.243,1.872-0.729s0.738-1.104,0.738-1.854c0-0.762-0.253-1.392-0.76-1.89s-1.141-0.747-1.903-0.747c-0.744,0-1.361,0.246-1.85,0.738S120.41,102.684,120.41,103.422z M120.92,97.472c0,0.609,0.196,1.107,0.589,1.494s0.902,0.58,1.529,0.58c0.609,0,1.109-0.191,1.499-0.576c0.39-0.383,0.584-0.854,0.584-1.41c0-0.58-0.201-1.068-0.602-1.463c-0.401-0.396-0.901-0.594-1.499-0.594c-0.604,0-1.104,0.193-1.503,0.58S120.92,96.933,120.92,97.472z"/>
            <path  d="M128.198,107.14l3.41-4.852l-3.156-4.482h1.979l1.432,2.188c0.27,0.416,0.486,0.765,0.65,1.046c0.258-0.387,0.496-0.729,0.713-1.028l1.572-2.206h1.891l-3.227,4.395l3.473,4.939h-1.943l-1.916-2.9l-0.51-0.782l-2.451,3.683H128.198z"/>
            <path  d="M146.022,97.411l-1.574,0.123c-0.141-0.621-0.34-1.072-0.598-1.354c-0.428-0.451-0.955-0.677-1.582-0.677c-0.504,0-0.945,0.141-1.326,0.422c-0.498,0.363-0.891,0.894-1.178,1.591s-0.438,1.69-0.449,2.979c0.381-0.58,0.848-1.011,1.398-1.292s1.127-0.422,1.73-0.422c1.055,0,1.953,0.389,2.694,1.165s1.112,1.779,1.112,3.01c0,0.809-0.175,1.561-0.523,2.254c-0.349,0.695-0.828,1.227-1.438,1.596s-1.301,0.554-2.074,0.554c-1.318,0-2.393-0.484-3.225-1.454s-1.248-2.568-1.248-4.795c0-2.49,0.459-4.301,1.379-5.432c0.803-0.984,1.885-1.477,3.244-1.477c1.014,0,1.844,0.284,2.491,0.853S145.893,96.409,146.022,97.411z M139.561,102.965c0,0.545,0.116,1.066,0.348,1.564s0.555,0.878,0.971,1.138c0.416,0.262,0.854,0.392,1.311,0.392c0.668,0,1.242-0.27,1.723-0.809s0.721-1.271,0.721-2.197c0-0.891-0.238-1.592-0.713-2.104s-1.072-0.77-1.793-0.77c-0.715,0-1.32,0.257-1.818,0.77S139.561,102.133,139.561,102.965z"/>
            <path  d="M152.895,107.14v-3.085h-5.59v-1.45l5.879-8.35h1.293v8.35h1.74v1.45h-1.74v3.085H152.895z M152.895,102.605v-5.81l-4.035,5.81H152.895z"/>
        </g>
        <g  enable-background="new    ">
            <path  d="M88.225,126.986v-12.885h1.705v12.885H88.225z"/>
            <path  d="M100.608,125.465v1.521h-8.517c-0.012-0.381,0.05-0.747,0.185-1.099c0.217-0.58,0.564-1.151,1.042-1.714s1.167-1.213,2.07-1.951c1.4-1.148,2.347-2.058,2.839-2.729s0.738-1.306,0.738-1.903c0-0.627-0.224-1.155-0.672-1.587c-0.448-0.43-1.033-0.646-1.753-0.646c-0.762,0-1.371,0.229-1.828,0.686s-0.688,1.09-0.694,1.898l-1.626-0.167c0.111-1.213,0.53-2.137,1.257-2.773c0.727-0.635,1.702-0.953,2.927-0.953c1.236,0,2.215,0.343,2.936,1.028s1.081,1.535,1.081,2.549c0,0.516-0.105,1.022-0.316,1.521s-0.561,1.022-1.05,1.573s-1.302,1.307-2.439,2.268c-0.949,0.797-1.559,1.338-1.828,1.622s-0.492,0.569-0.668,0.856H100.608z"/>
            <path  d="M112.14,122.468l1.705,0.431c-0.357,1.4-1,2.469-1.929,3.204s-2.064,1.103-3.406,1.103c-1.389,0-2.518-0.282-3.388-0.849c-0.87-0.564-1.532-1.384-1.986-2.456s-0.681-2.224-0.681-3.454c0-1.342,0.256-2.512,0.769-3.512c0.513-0.998,1.242-1.758,2.188-2.275c0.946-0.52,1.988-0.778,3.125-0.778c1.289,0,2.373,0.328,3.252,0.984s1.491,1.579,1.837,2.769l-1.679,0.396c-0.299-0.938-0.732-1.62-1.301-2.048s-1.283-0.642-2.145-0.642c-0.99,0-1.818,0.237-2.483,0.712s-1.132,1.111-1.402,1.912c-0.27,0.799-0.404,1.624-0.404,2.474c0,1.096,0.16,2.052,0.479,2.87c0.319,0.816,0.816,1.428,1.49,1.832s1.403,0.606,2.188,0.606c0.955,0,1.764-0.275,2.426-0.826S111.905,123.552,112.14,122.468z"/>
            <path  d="M120.428,120.71c0-2.139,0.574-3.813,1.723-5.023c1.148-1.209,2.631-1.814,4.447-1.814c1.189,0,2.262,0.284,3.217,0.853s1.683,1.361,2.184,2.378s0.752,2.169,0.752,3.458c0,1.307-0.264,2.476-0.791,3.507s-1.275,1.813-2.242,2.342c-0.967,0.531-2.009,0.796-3.128,0.796c-1.213,0-2.297-0.293-3.252-0.879s-1.679-1.386-2.171-2.399S120.428,121.841,120.428,120.71z M122.186,120.737c0,1.553,0.417,2.776,1.252,3.669c0.835,0.895,1.882,1.341,3.142,1.341c1.283,0,2.339-0.451,3.168-1.354s1.244-2.183,1.244-3.841c0-1.049-0.178-1.965-0.532-2.746c-0.354-0.783-0.873-1.389-1.556-1.82c-0.683-0.43-1.449-0.646-2.298-0.646c-1.207,0-2.246,0.415-3.116,1.243C122.621,117.414,122.186,118.797,122.186,120.737z"/>
            <path  d="M134.877,126.986v-12.885h1.705v11.364h6.346v1.521H134.877z"/>
            <path  d="M144.993,126.986v-12.885h9.316v1.521h-7.611v3.946h7.129v1.512h-7.129v4.386h7.91v1.521H144.993z"/>
            <path  d="M156.963,126.986v-12.885h4.439c1.002,0,1.766,0.062,2.293,0.185c0.738,0.17,1.369,0.478,1.891,0.923c0.68,0.574,1.188,1.309,1.524,2.201c0.337,0.895,0.505,1.915,0.505,3.063c0,0.979-0.113,1.846-0.342,2.602s-0.521,1.382-0.879,1.876c-0.357,0.496-0.749,0.886-1.174,1.17s-0.938,0.499-1.538,0.646s-1.29,0.22-2.069,0.22H156.963z M158.668,125.465h2.752c0.85,0,1.516-0.079,1.999-0.237s0.868-0.381,1.155-0.668c0.404-0.404,0.72-0.947,0.945-1.631c0.226-0.682,0.338-1.51,0.338-2.482c0-1.348-0.221-2.383-0.663-3.107c-0.442-0.723-0.979-1.208-1.612-1.454c-0.457-0.176-1.193-0.264-2.207-0.264h-2.707V125.465z"/>
        </g>
    </g>
    <g  transform="translate(-1.7716452,79.688923)">
        <g >
            <g >
                <g >
                    <g >
                        <g  id="g12334" gorn="0.4.0.0.0.0.0">
                            <g  enable-background="new    ">
                                <path  d="M159.353-30.768l0.894-0.078c0.043,0.358,0.141,0.651,0.295,0.882c0.155,0.229,0.395,0.414,0.721,0.557c0.326,0.141,0.691,0.212,1.099,0.212c0.361,0,0.681-0.054,0.957-0.161s0.482-0.255,0.618-0.441c0.135-0.188,0.202-0.392,0.202-0.613c0-0.225-0.065-0.421-0.195-0.588c-0.13-0.168-0.345-0.309-0.645-0.423c-0.192-0.075-0.616-0.191-1.274-0.349c-0.658-0.158-1.118-0.308-1.382-0.447c-0.342-0.179-0.597-0.401-0.765-0.666c-0.167-0.266-0.251-0.563-0.251-0.892c0-0.361,0.103-0.699,0.308-1.013c0.205-0.314,0.504-0.553,0.898-0.716s0.832-0.244,1.313-0.244c0.53,0,0.999,0.085,1.403,0.257c0.406,0.17,0.717,0.422,0.936,0.754s0.336,0.708,0.352,1.128l-0.908,0.068c-0.049-0.452-0.214-0.794-0.496-1.025c-0.281-0.231-0.697-0.347-1.247-0.347c-0.573,0-0.99,0.105-1.253,0.314c-0.262,0.211-0.393,0.464-0.393,0.76c0,0.257,0.093,0.469,0.278,0.635c0.183,0.166,0.658,0.336,1.429,0.51c0.77,0.175,1.297,0.327,1.584,0.457c0.416,0.192,0.725,0.436,0.923,0.73c0.198,0.294,0.298,0.634,0.298,1.018c0,0.381-0.109,0.74-0.327,1.076c-0.218,0.338-0.531,0.6-0.94,0.787c-0.408,0.187-0.867,0.28-1.379,0.28c-0.648,0-1.19-0.095-1.629-0.283c-0.438-0.188-0.781-0.473-1.029-0.853C159.497-29.86,159.366-30.289,159.353-30.768z"/>
                                <path  d="M166.345-28.468v-7.158h2.466c0.557,0,0.981,0.034,1.274,0.103c0.41,0.095,0.761,0.266,1.05,0.513c0.377,0.319,0.66,0.727,0.848,1.223c0.187,0.497,0.28,1.064,0.28,1.702c0,0.544-0.063,1.025-0.19,1.445s-0.289,0.768-0.488,1.042c-0.199,0.275-0.416,0.492-0.652,0.65c-0.235,0.157-0.521,0.277-0.854,0.358c-0.334,0.081-0.717,0.122-1.15,0.122H166.345z M167.293-29.312h1.528c0.473,0,0.842-0.044,1.111-0.132c0.268-0.088,0.482-0.212,0.642-0.371c0.225-0.225,0.399-0.526,0.524-0.906c0.126-0.379,0.188-0.839,0.188-1.379c0-0.749-0.123-1.324-0.368-1.727c-0.246-0.401-0.545-0.671-0.896-0.808c-0.254-0.098-0.662-0.146-1.226-0.146h-1.504V-29.312z"/>
                                <path  d="M172.781-28.468l2.749-7.158h1.021l2.93,7.158h-1.079l-0.835-2.168h-2.993l-0.786,2.168H172.781z M174.846-31.407h2.427l-0.747-1.982c-0.229-0.603-0.396-1.097-0.508-1.484c-0.092,0.459-0.22,0.915-0.386,1.367L174.846-31.407z"/>
                            </g>
                        </g>
                    </g>
                </g>
            </g>
        </g>
    </g>
    <g  enable-background="new    ">
        <path  d="M131.015,48.921l0.894-0.078c0.043,0.358,0.141,0.651,0.295,0.882c0.155,0.229,0.395,0.414,0.721,0.557c0.326,0.141,0.691,0.212,1.099,0.212c0.361,0,0.681-0.054,0.957-0.161s0.482-0.255,0.618-0.441c0.135-0.188,0.202-0.392,0.202-0.613c0-0.225-0.065-0.421-0.195-0.588c-0.13-0.168-0.345-0.309-0.645-0.423c-0.192-0.075-0.616-0.191-1.274-0.349c-0.658-0.158-1.118-0.308-1.382-0.447c-0.342-0.179-0.597-0.401-0.765-0.666c-0.167-0.266-0.251-0.563-0.251-0.892c0-0.361,0.103-0.699,0.308-1.013c0.205-0.314,0.504-0.553,0.898-0.716s0.832-0.244,1.313-0.244c0.53,0,0.999,0.085,1.403,0.257c0.406,0.17,0.717,0.422,0.936,0.754s0.336,0.708,0.352,1.128l-0.908,0.068c-0.049-0.452-0.214-0.794-0.496-1.025c-0.281-0.231-0.697-0.347-1.247-0.347c-0.573,0-0.99,0.105-1.253,0.314c-0.262,0.211-0.393,0.464-0.393,0.76c0,0.257,0.093,0.469,0.278,0.635c0.183,0.166,0.658,0.336,1.429,0.51c0.77,0.175,1.297,0.327,1.584,0.457c0.416,0.192,0.725,0.436,0.923,0.73c0.198,0.294,0.298,0.634,0.298,1.018c0,0.381-0.109,0.74-0.327,1.076c-0.218,0.338-0.531,0.6-0.94,0.787c-0.408,0.187-0.867,0.28-1.379,0.28c-0.648,0-1.19-0.095-1.629-0.283c-0.438-0.188-0.781-0.473-1.029-0.853C131.159,49.829,131.028,49.4,131.015,48.921z"/>
        <path  d="M143.115,48.711l0.947,0.239c-0.198,0.778-0.556,1.371-1.071,1.78c-0.517,0.408-1.146,0.612-1.893,0.612c-0.771,0-1.398-0.157-1.883-0.472c-0.482-0.313-0.851-0.769-1.104-1.364c-0.252-0.596-0.378-1.235-0.378-1.919c0-0.745,0.143-1.396,0.427-1.951c0.285-0.555,0.69-0.977,1.217-1.264c0.525-0.289,1.104-0.433,1.735-0.433c0.716,0,1.318,0.183,1.807,0.547s0.829,0.877,1.021,1.538l-0.933,0.22c-0.166-0.521-0.407-0.9-0.723-1.138s-0.713-0.356-1.191-0.356c-0.55,0-1.01,0.132-1.38,0.396c-0.369,0.264-0.629,0.617-0.778,1.063c-0.149,0.443-0.225,0.902-0.225,1.374c0,0.608,0.089,1.14,0.267,1.595c0.177,0.453,0.453,0.793,0.827,1.018s0.78,0.337,1.216,0.337c0.531,0,0.98-0.153,1.348-0.459S142.985,49.314,143.115,48.711z"/>
        <path  d="M145.19,51.221v-7.158h0.947v3.55l3.555-3.55h1.284l-3.003,2.9l3.135,4.258h-1.25l-2.549-3.623l-1.172,1.143v2.48H145.19z"/>
    </g>
    <g  enable-background="new    ">
        <path  d="M106.534,51.221l-2.773-7.158h1.025l1.86,5.2c0.15,0.417,0.275,0.808,0.376,1.172c0.111-0.391,0.239-0.781,0.386-1.172l1.934-5.2h0.967l-2.803,7.158H106.534z"/>
        <path  d="M111.158,51.221v-7.158h2.466c0.557,0,0.981,0.034,1.274,0.103c0.41,0.095,0.76,0.266,1.05,0.513c0.377,0.319,0.66,0.727,0.847,1.223c0.187,0.497,0.281,1.064,0.281,1.702c0,0.544-0.063,1.025-0.19,1.445s-0.29,0.768-0.488,1.042c-0.199,0.275-0.416,0.492-0.652,0.65c-0.236,0.157-0.521,0.277-0.854,0.358s-0.717,0.122-1.15,0.122H111.158z M112.105,50.376h1.528c0.472,0,0.842-0.044,1.111-0.132s0.482-0.212,0.642-0.371c0.225-0.225,0.399-0.526,0.525-0.906c0.125-0.379,0.188-0.839,0.188-1.379c0-0.749-0.123-1.324-0.369-1.727c-0.246-0.401-0.544-0.671-0.896-0.808c-0.254-0.098-0.663-0.146-1.226-0.146h-1.504V50.376z"/>
        <path  d="M118.379,51.221v-7.158h2.466c0.557,0,0.981,0.034,1.274,0.103c0.41,0.095,0.76,0.266,1.05,0.513c0.377,0.319,0.66,0.727,0.847,1.223c0.187,0.497,0.281,1.064,0.281,1.702c0,0.544-0.063,1.025-0.19,1.445s-0.29,0.768-0.488,1.042c-0.199,0.275-0.416,0.492-0.652,0.65c-0.236,0.157-0.521,0.277-0.854,0.358s-0.717,0.122-1.15,0.122H118.379z M119.327,50.376h1.528c0.472,0,0.842-0.044,1.111-0.132s0.482-0.212,0.642-0.371c0.225-0.225,0.399-0.526,0.525-0.906c0.125-0.379,0.188-0.839,0.188-1.379c0-0.749-0.123-1.324-0.369-1.727c-0.246-0.401-0.544-0.671-0.896-0.808c-0.254-0.098-0.663-0.146-1.226-0.146h-1.504V50.376z"/>
    </g>
    <g  enable-background="new    ">
        <path  d="M80.708,48.414v-0.84l3.032-0.005v2.656c-0.465,0.371-0.946,0.65-1.44,0.838c-0.495,0.187-1.002,0.28-1.523,0.28c-0.703,0-1.342-0.15-1.917-0.452c-0.575-0.301-1.008-0.736-1.301-1.306s-0.439-1.206-0.439-1.909c0-0.696,0.146-1.347,0.437-1.951c0.292-0.604,0.71-1.052,1.257-1.345s1.177-0.439,1.89-0.439c0.518,0,0.985,0.084,1.404,0.251c0.418,0.168,0.746,0.401,0.984,0.701s0.418,0.69,0.542,1.172l-0.854,0.234c-0.107-0.364-0.241-0.651-0.4-0.859s-0.387-0.375-0.684-0.5c-0.296-0.126-0.625-0.188-0.986-0.188c-0.433,0-0.807,0.065-1.123,0.198c-0.316,0.131-0.57,0.305-0.764,0.52s-0.344,0.451-0.452,0.708c-0.182,0.442-0.273,0.923-0.273,1.44c0,0.638,0.11,1.172,0.33,1.602s0.54,0.749,0.959,0.957s0.866,0.313,1.338,0.313c0.41,0,0.811-0.079,1.201-0.236c0.391-0.158,0.687-0.327,0.889-0.506v-1.333H80.708z"/>
        <path  d="M85.126,51.221v-7.158h0.972l3.76,5.62v-5.62h0.908v7.158h-0.972l-3.76-5.625v5.625H85.126z"/>
        <path  d="M92.358,51.221v-7.158h2.466c0.557,0,0.981,0.034,1.274,0.103c0.41,0.095,0.76,0.266,1.05,0.513c0.377,0.319,0.66,0.727,0.847,1.223c0.187,0.497,0.281,1.064,0.281,1.702c0,0.544-0.063,1.025-0.19,1.445s-0.29,0.768-0.488,1.042c-0.199,0.275-0.416,0.492-0.652,0.65c-0.236,0.157-0.521,0.277-0.854,0.358s-0.717,0.122-1.15,0.122H92.358z M93.305,50.376h1.528c0.472,0,0.842-0.044,1.111-0.132s0.482-0.212,0.642-0.371c0.225-0.225,0.399-0.526,0.525-0.906c0.125-0.379,0.188-0.839,0.188-1.379c0-0.749-0.123-1.324-0.369-1.727c-0.246-0.401-0.544-0.671-0.896-0.808c-0.254-0.098-0.663-0.146-1.226-0.146h-1.504V50.376z"/>
    </g>
    <path  id="path12324" stroke-width="3" d="M140.847,9.25v26.575" gorn="0.8" stroke="#000000" fill="none"/>
    <path  id="path12326" stroke-width="3" d="M167.422,9.25v26.575" gorn="0.9" stroke="#000000" fill="none"/>
    <path  id="path12346" stroke-width="3" d="M114.273,9.25v26.575" gorn="0.10" stroke="#000000" fill="none"/>
    <path  id="path12883" stroke-width="3" d="M87.698,9.25v26.575" gorn="0.11" stroke="#000000" fill="none"/>
    <rect  stroke-width="1" x="2.835" y="2.835" stroke="#FFFFFF" fill="none" width="249.447" stroke-miterlimit="10" height="170.078"/>
    <rect  id="connector4pin" gorn="0.13" x="163.878" y="5.707" fill="none" width="7.087" height="7.086"/>
    <rect  id="connector5pin" gorn="0.14" x="137.304" y="5.707" fill="none" width="7.086" height="7.086"/>
    <rect  id="connector7pin" gorn="0.15" x="110.729" y="5.707" fill="none" width="7.087" height="7.086"/>
    <rect  id="connector8pin" gorn="0.16" x="84.155" y="5.707" fill="none" width="7.086" height="7.086"/>
</svg>
