<?xml version='1.0' encoding='utf-8'?>
<!DOCTYPE svg>
<!-- Generator: Adobe Illustrator 16.0.0, SVG Export Plug-In . SVG Version: 6.00 Build 0)  -->
<svg xmlns="http://www.w3.org/2000/svg"  id="svg13574" enable-background="new 0 0 76.535 76.563" gorn="0" version="1.1" x="0px" y="0px" xml:space="preserve" width="1.06299in" xmlns:xml="http://www.w3.org/XML/1998/namespace" height="1.06337in" viewBox="0 0 76.535 76.563">
    <desc >
        <referenceFile >svg.icon.OLED_128x64 I2C_Monnochrome_Display_icon.svg</referenceFile>
    </desc>
    <g >
        <path  d="M0,0v53.885v2.835v8.196v3.143v8.504h19.275v-5.669H57.26v5.669h19.275v-8.504v-3.143v-8.196V0H0z M4.811,0.988c1.962,0,3.542,1.646,3.542,3.681S6.773,8.35,4.811,8.35c-1.962,0-3.563-1.646-3.563-3.682C1.248,2.635,2.849,0.988,4.811,0.988z M4.833,75.294c-1.962,0-3.554-1.649-3.554-3.686s1.591-3.686,3.554-3.686s3.554,1.648,3.554,3.686C8.387,73.644,6.796,75.294,4.833,75.294z M27.438,6.087c-0.783,0-1.416-0.635-1.416-1.417s0.635-1.418,1.416-1.418c0.783,0,1.418,0.636,1.418,1.418S28.221,6.087,27.438,6.087z M34.639,6.087c-0.783,0-1.418-0.635-1.418-1.417s0.635-1.418,1.418-1.418c0.781,0,1.416,0.636,1.416,1.418S35.42,6.087,34.639,6.087z M41.838,6.087c-0.781,0-1.417-0.635-1.417-1.417s0.636-1.418,1.417-1.418c0.783,0,1.418,0.636,1.418,1.418S42.621,6.087,41.838,6.087z M49.039,6.087c-0.782,0-1.417-0.635-1.417-1.417s0.635-1.418,1.417-1.418c0.783,0,1.418,0.636,1.418,1.418S49.822,6.087,49.039,6.087z M71.702,75.294c-1.964,0-3.554-1.649-3.554-3.686s1.59-3.686,3.554-3.686c1.962,0,3.553,1.648,3.553,3.686C75.255,73.644,73.664,75.294,71.702,75.294z M71.725,8.351c-1.963,0-3.543-1.646-3.543-3.682c0-2.034,1.58-3.681,3.543-3.681s3.563,1.646,3.563,3.681C75.288,6.705,73.688,8.351,71.725,8.351z" fill="#165C7A"/>
        <path  id="path11618" stroke-width="1.8" d="M8.387,71.608c0,2.035-1.591,3.686-3.553,3.686S1.28,73.644,1.28,71.608s1.591-3.686,3.554-3.686S8.387,69.572,8.387,71.608z" gorn="0.1.1" stroke="#ECC98A" fill="none"/>
        <path  id="path4879" stroke-width="1.8" d="M75.255,71.608c0,2.035-1.591,3.686-3.553,3.686c-1.964,0-3.554-1.649-3.554-3.686s1.59-3.686,3.554-3.686C73.664,67.924,75.255,69.572,75.255,71.608z" gorn="0.1.2" stroke="#ECC98A" fill="none"/>
        <rect  id="rect4903" gorn="0.1.3" x="0.567" y="10.205" fill="#3E3D40" width="75.402" height="54.425"/>
        <rect  id="rect4903_1_" gorn="0.1.4" x="0.567" y="10.205" width="75.402" height="42.521"/>
        <rect  enable-background="new    " opacity="0.8" x="3.402" y="13.04" fill="#2E2D30" width="69.733" height="36.85"/>
        <path  enable-background="new    " d="M3.402,49.889V13.04h33.062c8.255,21.905,19.804,36.85,19.804,36.85H3.402z" opacity="0.2" fill="#58585A"/>
        <g  enable-background="new    ">
            <path  d="M25.676,8.858V8.646l0.764-0.001v0.669c-0.117,0.094-0.238,0.164-0.363,0.211s-0.252,0.07-0.384,0.07c-0.177,0-0.338-0.037-0.483-0.113c-0.145-0.076-0.254-0.186-0.328-0.329c-0.074-0.144-0.11-0.304-0.11-0.481c0-0.175,0.037-0.339,0.11-0.491s0.179-0.265,0.317-0.339s0.296-0.11,0.476-0.11c0.13,0,0.249,0.021,0.354,0.063c0.105,0.043,0.188,0.102,0.248,0.177c0.06,0.076,0.105,0.174,0.137,0.296l-0.215,0.059c-0.027-0.092-0.061-0.164-0.101-0.217c-0.04-0.052-0.098-0.094-0.172-0.126c-0.075-0.031-0.158-0.047-0.249-0.047c-0.109,0-0.204,0.017-0.283,0.05s-0.144,0.076-0.192,0.131c-0.049,0.054-0.087,0.113-0.114,0.179c-0.046,0.111-0.069,0.232-0.069,0.362c0,0.161,0.027,0.296,0.083,0.403c0.055,0.108,0.136,0.189,0.242,0.241c0.105,0.053,0.218,0.079,0.337,0.079c0.104,0,0.204-0.02,0.303-0.06s0.173-0.082,0.224-0.127V8.858H25.676z" fill="#FFFFFF"/>
            <path  d="M26.79,9.565V7.761h0.245l0.948,1.416V7.761h0.229v1.804h-0.245l-0.947-1.417v1.417H26.79z" fill="#FFFFFF"/>
            <path  d="M28.611,9.565V7.761h0.622c0.14,0,0.247,0.009,0.321,0.026c0.104,0.023,0.191,0.066,0.265,0.129c0.095,0.08,0.166,0.183,0.213,0.308s0.071,0.269,0.071,0.429c0,0.138-0.016,0.259-0.048,0.364c-0.032,0.106-0.073,0.193-0.123,0.263c-0.05,0.069-0.105,0.124-0.165,0.164c-0.059,0.04-0.131,0.07-0.215,0.091c-0.084,0.021-0.181,0.03-0.29,0.03H28.611z M28.85,9.352h0.385c0.119,0,0.212-0.011,0.28-0.033c0.067-0.022,0.122-0.054,0.162-0.094c0.057-0.057,0.101-0.133,0.132-0.228c0.032-0.096,0.047-0.212,0.047-0.348c0-0.188-0.031-0.334-0.093-0.436c-0.062-0.101-0.137-0.169-0.226-0.203c-0.064-0.024-0.167-0.037-0.309-0.037H28.85V9.352z" fill="#FFFFFF"/>
        </g>
        <g  enable-background="new    ">
            <path  d="M24.014,5.65h-0.222V4.239c-0.053,0.051-0.123,0.102-0.21,0.152c-0.086,0.051-0.164,0.089-0.233,0.114V4.292c0.124-0.059,0.232-0.129,0.325-0.212c0.093-0.082,0.158-0.163,0.197-0.24h0.143V5.65z" fill="#FFFFFF"/>
        </g>
        <g  enable-background="new    ">
            <path  d="M52.873,5.65V5.219h-0.782V5.015l0.823-1.169h0.181v1.169h0.243v0.203h-0.243V5.65H52.873z M52.873,5.015V4.202l-0.564,0.813H52.873z" fill="#FFFFFF"/>
        </g>
        <g  enable-background="new    ">
            <path  d="M32.688,9.565l-0.699-1.804h0.258l0.469,1.311c0.038,0.104,0.069,0.203,0.095,0.295c0.028-0.099,0.06-0.196,0.097-0.295l0.487-1.311h0.244l-0.707,1.804H32.688z" fill="#FFFFFF"/>
            <path  d="M33.853,9.565V7.761h0.622c0.14,0,0.247,0.009,0.321,0.026c0.104,0.023,0.191,0.066,0.265,0.129c0.095,0.08,0.166,0.183,0.213,0.308s0.071,0.269,0.071,0.429c0,0.138-0.016,0.259-0.048,0.364c-0.032,0.106-0.073,0.193-0.123,0.263c-0.05,0.069-0.105,0.124-0.165,0.164c-0.059,0.04-0.131,0.07-0.215,0.091c-0.084,0.021-0.181,0.03-0.29,0.03H33.853z M34.091,9.352h0.385c0.119,0,0.212-0.011,0.28-0.033c0.067-0.022,0.122-0.054,0.162-0.094c0.057-0.057,0.101-0.133,0.132-0.228c0.032-0.096,0.047-0.212,0.047-0.348c0-0.188-0.031-0.334-0.093-0.436c-0.062-0.101-0.137-0.169-0.226-0.203c-0.064-0.024-0.167-0.037-0.309-0.037h-0.379V9.352z" fill="#FFFFFF"/>
            <path  d="M35.672,9.565V7.761h0.622c0.14,0,0.247,0.009,0.321,0.026c0.104,0.023,0.191,0.066,0.265,0.129c0.095,0.08,0.166,0.183,0.213,0.308s0.071,0.269,0.071,0.429c0,0.138-0.016,0.259-0.048,0.364c-0.032,0.106-0.073,0.193-0.123,0.263c-0.05,0.069-0.105,0.124-0.165,0.164c-0.059,0.04-0.131,0.07-0.215,0.091c-0.084,0.021-0.181,0.03-0.29,0.03H35.672z M35.911,9.352h0.385c0.119,0,0.212-0.011,0.28-0.033c0.067-0.022,0.122-0.054,0.162-0.094c0.057-0.057,0.101-0.133,0.132-0.228c0.032-0.096,0.047-0.212,0.047-0.348c0-0.188-0.031-0.334-0.093-0.436c-0.062-0.101-0.137-0.169-0.226-0.203c-0.064-0.024-0.167-0.037-0.309-0.037h-0.379V9.352z" fill="#FFFFFF"/>
        </g>
        <g  enable-background="new    ">
            <path  d="M39.361,8.986l0.225-0.021c0.012,0.091,0.036,0.165,0.074,0.223c0.039,0.058,0.1,0.104,0.182,0.14c0.082,0.036,0.175,0.054,0.277,0.054c0.091,0,0.172-0.014,0.241-0.04c0.069-0.027,0.122-0.064,0.155-0.111c0.034-0.048,0.051-0.099,0.051-0.154c0-0.057-0.016-0.106-0.049-0.148s-0.087-0.078-0.162-0.106c-0.049-0.02-0.156-0.049-0.321-0.088c-0.165-0.04-0.282-0.077-0.349-0.113c-0.086-0.045-0.15-0.101-0.191-0.168C39.451,8.385,39.43,8.31,39.43,8.228c0-0.092,0.026-0.177,0.078-0.256c0.051-0.079,0.127-0.139,0.227-0.18s0.209-0.062,0.33-0.062c0.135,0,0.252,0.021,0.354,0.064c0.104,0.043,0.182,0.106,0.236,0.189c0.055,0.084,0.084,0.179,0.088,0.284l-0.229,0.018c-0.012-0.114-0.054-0.2-0.125-0.259c-0.07-0.058-0.176-0.087-0.314-0.087c-0.144,0-0.249,0.026-0.314,0.079c-0.066,0.053-0.1,0.117-0.1,0.191c0,0.065,0.023,0.118,0.07,0.16c0.046,0.042,0.166,0.085,0.359,0.129c0.194,0.044,0.328,0.082,0.399,0.114c0.104,0.049,0.183,0.11,0.233,0.185c0.049,0.074,0.074,0.159,0.074,0.256s-0.027,0.187-0.082,0.271s-0.135,0.151-0.237,0.198s-0.219,0.07-0.347,0.07c-0.164,0-0.301-0.023-0.411-0.071c-0.11-0.047-0.196-0.119-0.259-0.214C39.397,9.215,39.365,9.106,39.361,8.986z" fill="#FFFFFF"/>
            <path  d="M42.41,8.932l0.238,0.061c-0.05,0.196-0.14,0.346-0.27,0.448c-0.131,0.104-0.289,0.154-0.477,0.154c-0.195,0-0.354-0.039-0.475-0.118c-0.122-0.079-0.215-0.194-0.278-0.344c-0.063-0.15-0.095-0.312-0.095-0.483c0-0.188,0.035-0.352,0.107-0.492c0.071-0.14,0.174-0.246,0.307-0.318c0.132-0.072,0.277-0.108,0.438-0.108c0.18,0,0.332,0.046,0.455,0.138s0.208,0.221,0.257,0.388l-0.235,0.055c-0.041-0.131-0.103-0.227-0.182-0.286c-0.08-0.061-0.18-0.09-0.301-0.09c-0.139,0-0.254,0.033-0.348,0.1c-0.093,0.066-0.158,0.155-0.195,0.268c-0.038,0.111-0.057,0.228-0.057,0.346c0,0.153,0.021,0.288,0.066,0.402s0.114,0.199,0.209,0.256c0.094,0.057,0.196,0.085,0.307,0.085c0.133,0,0.246-0.038,0.339-0.115S42.377,9.085,42.41,8.932z" fill="#FFFFFF"/>
            <path  d="M42.934,9.565V7.761h0.238v0.895l0.896-0.895h0.323l-0.756,0.73l0.789,1.073h-0.314l-0.643-0.913L43.172,8.94v0.625H42.934z" fill="#FFFFFF"/>
        </g>
        <g  enable-background="new    ">
            <path  d="M46.559,8.986l0.225-0.021c0.012,0.091,0.036,0.165,0.074,0.223c0.039,0.058,0.1,0.104,0.182,0.14c0.082,0.036,0.175,0.054,0.277,0.054c0.091,0,0.172-0.014,0.241-0.04c0.069-0.027,0.122-0.064,0.155-0.111c0.034-0.048,0.051-0.099,0.051-0.154c0-0.057-0.016-0.106-0.049-0.148s-0.087-0.078-0.162-0.106c-0.049-0.02-0.156-0.049-0.321-0.088c-0.165-0.04-0.282-0.077-0.349-0.113c-0.086-0.045-0.15-0.101-0.191-0.168c-0.043-0.066-0.064-0.142-0.064-0.224c0-0.092,0.026-0.177,0.078-0.256c0.051-0.079,0.127-0.139,0.227-0.18s0.209-0.062,0.33-0.062c0.135,0,0.252,0.021,0.354,0.064c0.104,0.043,0.182,0.106,0.236,0.189c0.055,0.084,0.084,0.179,0.088,0.284l-0.229,0.018c-0.012-0.114-0.054-0.2-0.125-0.259c-0.07-0.058-0.176-0.087-0.314-0.087c-0.144,0-0.249,0.026-0.314,0.079c-0.066,0.053-0.1,0.117-0.1,0.191c0,0.065,0.023,0.118,0.07,0.16c0.046,0.042,0.166,0.085,0.359,0.129c0.194,0.044,0.328,0.082,0.399,0.114c0.104,0.049,0.183,0.11,0.233,0.185c0.049,0.074,0.074,0.159,0.074,0.256s-0.027,0.187-0.082,0.271s-0.135,0.151-0.237,0.198s-0.219,0.07-0.347,0.07c-0.164,0-0.301-0.023-0.411-0.071c-0.11-0.047-0.196-0.119-0.259-0.214C46.595,9.215,46.563,9.106,46.559,8.986z" fill="#FFFFFF"/>
            <path  d="M48.32,9.565V7.761h0.621c0.141,0,0.248,0.009,0.321,0.026c0.104,0.023,0.191,0.066,0.265,0.129c0.096,0.08,0.166,0.183,0.213,0.308c0.048,0.125,0.071,0.269,0.071,0.429c0,0.138-0.017,0.259-0.048,0.364c-0.032,0.106-0.073,0.193-0.123,0.263c-0.051,0.069-0.105,0.124-0.164,0.164c-0.06,0.04-0.131,0.07-0.216,0.091c-0.084,0.021-0.181,0.03-0.29,0.03H48.32z M48.559,9.352h0.386c0.118,0,0.212-0.011,0.28-0.033c0.066-0.022,0.121-0.054,0.161-0.094c0.057-0.057,0.101-0.133,0.132-0.228c0.032-0.096,0.048-0.212,0.048-0.348c0-0.188-0.03-0.334-0.093-0.436c-0.063-0.101-0.137-0.169-0.227-0.203c-0.063-0.024-0.166-0.037-0.309-0.037h-0.379V9.352z" fill="#FFFFFF"/>
            <path  d="M49.941,9.565l0.693-1.804h0.258l0.737,1.804h-0.271l-0.21-0.546h-0.755l-0.198,0.546H49.941z M50.463,8.825h0.611l-0.188-0.5c-0.058-0.151-0.101-0.276-0.128-0.374c-0.023,0.116-0.055,0.23-0.098,0.345L50.463,8.825z" fill="#FFFFFF"/>
        </g>
        <path  id="path10269" stroke-width="1.8" d="M75.285,4.669c0,2.035-1.592,3.686-3.553,3.686c-1.963,0-3.555-1.65-3.555-3.686s1.592-3.685,3.555-3.685C73.693,0.984,75.285,2.634,75.285,4.669z" gorn="0.1.13" stroke="#ECC98A" fill="none"/>
        <path  id="path10267" stroke-width="1.8" d="M8.355,4.669c0,2.035-1.59,3.686-3.554,3.686c-1.962,0-3.553-1.65-3.553-3.686S2.84,0.984,4.802,0.984C6.766,0.984,8.355,2.634,8.355,4.669z" gorn="0.1.14" stroke="#ECC98A" fill="none"/>
        <linearGradient  id="SVGID_1_" gradientTransform="matrix(1 0 0 -1 0.04 75.6265)" y1="4.0486" y2="4.0486" x1="21.2197" x2="55.2354" gradientUnits="userSpaceOnUse">
            <stop  offset="0" style="stop-color:#CA7C05"/>
            <stop  offset="0.7895" style="stop-color:#FFC97D"/>
            <stop  offset="1" style="stop-color:#CE7500"/>
        </linearGradient>
        <path  d="M53.813,68.028h-31.09c-0.813,0.041-1.463,0.709-1.463,1.533v5.566h34.016v-5.566C55.275,68.737,54.627,68.069,53.813,68.028z" fill="url(#SVGID_1_)"/>
        <path  d="M53.857,64.63h-3.25H25.927h-3.25h-2.584v0.083c1.429,0,2.584,1.156,2.584,2.583v7.833h31.181v-7.833c0-1.427,1.156-2.583,2.584-2.583V64.63H53.857z"/>
        <rect  x="20.093" y="52.725" fill="#292929" width="36.349" height="11.987"/>
        <rect  id="rect4903_2_" enable-background="new    " opacity="0.8" gorn="0.1.19" x="0.567" y="52.725" fill="#1A171B" width="75.402" height="2.735"/>
    </g>
    <path  id="path14126" stroke-width="1.5" d="M28.855,4.67c0,0.782-0.635,1.417-1.418,1.417c-0.781,0-1.416-0.635-1.416-1.417s0.635-1.418,1.416-1.418C28.221,3.252,28.855,3.887,28.855,4.67z" gorn="0.2" stroke="#ECC98A" fill="none"/>
    <path  id="path14126_1_" stroke-width="1.5" d="M36.055,4.67c0,0.782-0.635,1.417-1.416,1.417c-0.783,0-1.418-0.635-1.418-1.417s0.635-1.418,1.418-1.418C35.42,3.252,36.055,3.887,36.055,4.67z" gorn="0.3" stroke="#ECC98A" fill="none"/>
    <path  id="path14126_2_" stroke-width="1.5" d="M43.256,4.67c0,0.782-0.635,1.417-1.418,1.417c-0.781,0-1.417-0.635-1.417-1.417s0.636-1.418,1.417-1.418C42.621,3.252,43.256,3.887,43.256,4.67z" gorn="0.4" stroke="#ECC98A" fill="none"/>
    <path  id="path14126_3_" stroke-width="1.5" d="M50.456,4.67c0,0.782-0.636,1.417-1.418,1.417s-1.417-0.635-1.417-1.417s0.635-1.418,1.417-1.418S50.456,3.887,50.456,4.67z" gorn="0.5" stroke="#ECC98A" fill="none"/>
</svg>
